<svg xmlns="http://www.w3.org/2000/svg" width="16" height="16" viewBox="0 0 16 16" version="1.1">
	<path d="M 0.750 0.662 C 1.438 0.940, 2.563 0.940, 3.250 0.662 C 3.938 0.385, 3.375 0.158, 2 0.158 C 0.625 0.158, 0.062 0.385, 0.750 0.662 M 10 7 L 10 14 5 14 C 2.250 14, 0 14.431, 0 14.957 C 0 16.448, 16.249 15.762, 16.751 14.250 C 16.980 13.562, 16.653 13, 16.024 13 C 15.396 13, 15.160 13.450, 15.500 14 C 15.840 14.550, 15.641 15, 15.059 15 C 14.408 15, 14 12.112, 14 7.500 C 14 0.667, 13.822 0, 12 0 C 10.190 0, 10 0.667, 10 7 M 2.264 2.718 C 3.784 2.947, 6.034 2.941, 7.264 2.704 C 8.494 2.467, 7.250 2.279, 4.500 2.286 C 1.750 2.294, 0.744 2.488, 2.264 2.718 M 15.500 4 C 15.840 4.550, 16.316 5, 16.559 5 C 16.802 5, 17 4.550, 17 4 C 17 3.450, 16.523 3, 15.941 3 C 15.359 3, 15.160 3.450, 15.500 4 M 1 5.211 C 1 5.645, 2.575 6, 4.500 6 C 6.425 6, 8 5.603, 8 5.118 C 8 4.633, 6.425 4.278, 4.500 4.329 C 2.575 4.380, 1 4.777, 1 5.211 M 2.264 7.718 C 3.784 7.947, 6.034 7.941, 7.264 7.704 C 8.494 7.467, 7.250 7.279, 4.500 7.286 C 1.750 7.294, 0.744 7.488, 2.264 7.718 M 15.500 9 C 15.840 9.550, 16.316 10, 16.559 10 C 16.802 10, 17 9.550, 17 9 C 17 8.450, 16.523 8, 15.941 8 C 15.359 8, 15.160 8.450, 15.500 9 M 1 10.211 C 1 10.645, 2.575 11, 4.500 11 C 6.425 11, 8 10.603, 8 10.118 C 8 9.633, 6.425 9.278, 4.500 9.329 C 2.575 9.380, 1 9.777, 1 10.211 M 2.264 12.718 C 3.784 12.947, 6.034 12.941, 7.264 12.704 C 8.494 12.467, 7.250 12.279, 4.500 12.286 C 1.750 12.294, 0.744 12.488, 2.264 12.718 " stroke="none" fill="black" fill-rule="evenodd"/>
</svg>