<svg xmlns="http://www.w3.org/2000/svg" width="16" height="16" viewBox="0 0 16 16" version="1.1">
	<path d="M 0.460 0.935 C 0.833 1.538, 1.605 1.744, 2.176 1.391 C 3.388 0.642, 2.291 4.948, 0.888 6.450 C 0.399 6.973, 0 8.210, 0 9.200 C 0 10.715, 0.870 11, 5.500 11 C 9.722 11, 11 11.348, 11 12.500 C 11 13.325, 10.550 14, 10 14 C 9.450 14, 9 13.550, 9 13 C 9 12.450, 6.862 12.068, 4.250 12.150 L -0.500 12.300 4 13 L 8.500 13.700 4.250 13.850 C -3.397 14.120, -0.203 15.877, 7.968 15.895 C 15.267 15.911, 18.345 14.928, 16.463 13.183 C 16.058 12.808, 15.525 13.063, 15.280 13.750 C 14.656 15.497, 13 15.315, 13 13.500 C 13 12.645, 13.968 11.950, 15.250 11.884 C 16.943 11.797, 17.067 11.655, 15.750 11.311 C 14.411 10.961, 14 9.799, 14 6.368 C 14 3.288, 14.354 2.101, 15.130 2.580 C 15.815 3.004, 16.078 2.732, 15.798 1.889 C 15.471 0.903, 13.081 0.404, 7.559 0.168 C 2.093 -0.065, -0.017 0.163, 0.460 0.935 M 5 1.693 C 5 2.882, 8.630 10, 9.236 10 C 9.656 10, 10 8.065, 10 5.700 C 10 1.780, 9.779 1.400, 7.500 1.400 C 6.125 1.400, 5 1.532, 5 1.693 M 11 5.382 C 11 7.857, 11.450 10.160, 12 10.500 C 12.610 10.877, 13 9.363, 13 6.618 C 13 4.143, 12.550 1.840, 12 1.500 C 11.390 1.123, 11 2.637, 11 5.382 M 1.655 9.250 C 1.909 9.662, 2.965 10, 4 10 C 5.035 10, 6.091 9.662, 6.345 9.250 C 6.600 8.838, 5.545 8.500, 4 8.500 C 2.455 8.500, 1.400 8.838, 1.655 9.250 " stroke="none" fill="black" fill-rule="evenodd"/>
</svg>